<?xml version="1.0" encoding="utf-8"?><svg xmlns="http://www.w3.org/2000/svg" xmlns:xlink="http://www.w3.org/1999/xlink" id="AESTHETIC_mtns" x="0" y="0" baseProfile="tiny" overflow="visible" version="1.2" viewBox="0 0 1128.8 124" xml:space="preserve"><path fill="none" stroke="#231F20" stroke-miterlimit="10" stroke-width=".13" d="M527.1 64.9c10.4-9.7 20.8-19.4 31.1-29.1 3.4-4.3 7.1 2.2 9.8 4.1 7.8 7.2 15.5 14.4 22.8 21.9 4.5 4 9.1 12.8 16.2 10.3 30.3-27.6 21.3-13 54.7 9.3m-107.6-.2c32.8 14.7 66 28.4 99.9 40 29.3 9.2 19 14.8 44.7-6.5"/><path fill="none" stroke="#231F20" stroke-miterlimit="10" stroke-width=".13" d="M552.8 80.5c14.9 6.9 30.8 10.5 45.7 17 18.8 8 37.2 17.2 57.3 21.5 27 9 15.5 10.4 40-6.7"/><path fill="none" stroke="#231F20" stroke-miterlimit="10" stroke-width=".13" d="M551.5 79.7c13.7 5.5 28.1 8 41.8 13 17.8 7.8 35 18 54.2 21.8 28.6 4.2 17.7 15.4 45.6-4.5"/><path fill="none" stroke="#231F20" stroke-miterlimit="10" stroke-width=".13" d="M550.2 79c13.9 5.2 29.1 5.5 42.6 11.1 16.7 7.5 32.7 18.1 50.8 21.3 29.2 1.2 17.1 15.5 46.9-3.5"/><path fill="none" stroke="#231F20" stroke-miterlimit="10" stroke-width=".13" d="M548.9 78.3c12.3 3 24.7 5 37.2 6.4 15.6 7.3 30.6 16.3 46.7 22.5 5.8 2 11.8.8 17.8 1.7 24.6 6.5 12.1 8.8 37.5-3.1"/><path fill="none" stroke="#231F20" stroke-miterlimit="10" stroke-width=".13" d="M547.6 77.5c12.6 2.5 25.3 2.9 37.9 4.1 12.8 7.4 25.7 14 39 20.5 9.9 6.5 21.7.9 32.2 5.1 3.3.7 6.7 4.3 10 3.9 6.4-2.3 12.8-4.9 19.2-7.3"/><path fill="none" stroke="#231F20" stroke-miterlimit="10" stroke-width=".13" d="M546.2 76.7c52.9 3.8 24.5-3.9 72.4 21.1 10.8 7.9 19.3 3.8 31 4.7 5.1 0 10.1 4.8 14.8 5.2 6.4-1.7 12.9-3.9 19.2-5.8"/><path fill="none" stroke="#231F20" stroke-miterlimit="10" stroke-width=".13" d="M544.9 75.9c53.2.3 24-6.3 71.8 19.5 11.6 8.7 18.6 3.2 30.9 3.6 3.3.3 7 1.6 10 3.4 6.9 4.5 16.3-1.8 24-2.3"/><path fill="none" stroke="#231F20" stroke-miterlimit="10" stroke-width=".13" d="M543.6 75.2c11.1-.3 22.1-1.4 33.1-2.9 1.6-.2 3.2-.6 5.1.6 12.9 8.4 25.7 16.1 39 23.6 7.6 4.8 15.9-1.2 23.8-.8 23.1 4.6 2.2 7.9 35.2 2.9"/><path fill="none" stroke="#231F20" stroke-miterlimit="10" stroke-width=".13" d="M542.2 74.4c55.1-7.1 23.1-10.3 76.7 19.8 7.8 5 15.9-1.9 23.9-1.9 21.6 3.4 1.6 7.3 35.3 4.5"/><path fill="none" stroke="#231F20" stroke-miterlimit="10" stroke-width=".13" d="M540.9 73.6c54.2-10.4 22.7-13 76.2 18.5 7.9 5.2 15.9-2.7 24-2.9 5.3-1 10.8 3.5 15 5.5 6.6.4 13.7.4 20.3.7"/><path fill="none" stroke="#231F20" stroke-miterlimit="10" stroke-width=".13" d="M539.5 72.7C592.9 59 562 57.1 615.3 89.9c8.1 5.5 16-3.4 24.1-3.9 5.3-1.2 10.9 3.3 15 5.5 6.6 1 13.8 1.5 20.5 2.4"/><path fill="none" stroke="#231F20" stroke-miterlimit="10" stroke-width=".13" d="M538.2 71.9c52.5-16.8 22.2-18.4 75.5 15.9 8.3 5.7 16.1-4.1 24.2-4.9 5.3-1.4 11 3.1 15 5.5 6.6 1.6 13.9 2.7 20.7 4.2"/><path fill="none" stroke="#231F20" stroke-miterlimit="10" stroke-width=".13" d="M536.8 71.1c10.5-4 20.8-8.5 31-13.2 1.6-.7 2.8-3.2 4.7-1.7 12.4 9.6 24.7 18.7 37.2 28 9.2 9 18.2-3.5 27.7-4.4 5.3-1 10.3 3.5 14.6 5.8 6.6 2.3 13.6 3.6 20.3 5.7"/><path fill="none" stroke="#231F20" stroke-miterlimit="10" stroke-width=".13" d="M535.4 70.2c10.5-4.8 20.7-9.9 30.9-15.2 1.6-.8 2.7-3.5 4.7-2 12.5 9.9 24.7 19.3 37.1 29.1 11.1 10.9 20.8-8.8 32.8-5 9.5 5.7 19.4 9.7 30.1 13"/><path fill="none" stroke="#231F20" stroke-miterlimit="10" stroke-width=".13" d="M534.1 69.4c11.6-6.1 23-12.6 34.3-19.3 1.5-.9 3.6 1.8 5.4 3.2 11.8 9.4 22.9 18.7 34.6 28.1 8.2 6.7 15.7-4 23.2-6.7 6.8-3.4 13.1 1.8 18.4 5.5 6.4 3.4 13.5 5.7 20.1 8.8"/><path fill="none" stroke="#231F20" stroke-miterlimit="10" stroke-width=".13" d="M532.7 68.5c11.6-6.9 22.9-14.1 34.2-21.5 1.5-1 3.6 1.8 5.4 3.3 7.4 6.2 14.7 12.3 22 18.4 6.6 4.3 12.4 14.9 21.3 12.5C644 60.8 636.1 74.8 669 88"/><path fill="none" stroke="#231F20" stroke-miterlimit="10" stroke-width=".13" d="M531.3 67.6c11.5-7.8 22.8-15.7 34-23.8 1.5-1.1 3.6 1.9 5.5 3.4 7.5 6.4 14.8 12.6 22 19 6.5 4.3 12.2 15.5 21.1 12.7 28.4-22.2 21.4-7.5 53.6 7.6"/><path fill="none" stroke="#231F20" stroke-miterlimit="10" stroke-width=".13" d="M529.9 66.7c11-8.4 21.9-16.8 32.7-25.4 4-3 28 23 33.2 26.7 4.5 4.1 10.7 12.5 17.3 7.6 26.2-23.6 23-6.3 52.5 9"/><path fill="none" stroke="#231F20" stroke-miterlimit="10" stroke-width=".13" d="M528.5 65.8c10.9-9.2 21.6-18.4 32.4-27.7 3.9-3.3 28.2 23.7 33.1 27.4 4.3 4.2 10.6 12.9 17.1 7.6 26.5-25.5 23.4-7.1 52.6 9.8m-108.3-1C588 100 623.3 111.8 658 125.1c30.2 11.6 18.3 13.8 43.7-7.8"/><path fill="none" stroke="#231F20" stroke-miterlimit="10" stroke-width=".13" d="M527.1 64.9c9.4 6.1 18.5 11.6 28.3 17m99.6-5.7c13.5 15.9 25.7 31.9 41.4 45.9M648.3 71c13.7 19.2 25.6 39 42.3 56.1m-48.8-61.6c13.7 22.8 25 46.3 42.4 66.8m-48-72.2c13.2 24.7 23.7 50.3 41 72.8m-48.5-76c13.4 24.7 24.2 50.4 41.4 73m-47.5-70.8c13.1 23 23.9 46.9 40.4 67.9m-48.2-61.5c13.5 20 25.2 40.5 41.3 58.8m-48.4-52.5c13.7 17 26 34.3 41.4 49.9m-48.4-50.3c13.7 16.2 26.2 32.7 41.4 47.7m-46.7-52.5c13.2 17 25 34.2 39.9 49.9m-44-54.3c12.3 17.5 23 35.4 37.1 51.7m-42.1-56.7c11.6 18.3 21.6 37 35.1 54.2m-41-59.9c11.3 19.3 20.9 39 34 57.2M573.6 45c11.2 20.5 20.9 41.4 33.8 60.9m-41.6-68.1c11.5 21.9 21.5 44.1 34.5 65.3m-42-67.3c11.7 21.6 22 43.4 34.9 64.3M552 41.6c11.3 18.6 21.7 37.3 33.9 55.3m-40.1-49.5c10.9 15.6 21.1 31 32.7 46.1m-38.9-40.2C550 65.8 560 77.9 570.9 90m-37.6-30.9c9.9 9.3 19.6 18.1 29.9 27m98.6-4.7c13.3 12.5 25.5 24.5 40 35.9"/><path fill="none" stroke="#231F20" stroke-miterlimit="10" stroke-width=".05" d="M668.9 87.9c14.3-9.3 29.4-2.8 41 7.5m-28 4.9c24.8 17.1 13.2 21 31.2 5.6"/><path fill="none" stroke="#231F20" stroke-miterlimit="10" stroke-width=".05" d="M681 99.5c25.4 15.4 13.2 20.5 32.3 6.2"/><path fill="none" stroke="#231F20" stroke-miterlimit="10" stroke-width=".05" d="M680.2 98.8c26.1 13.7 13.2 19.7 33.4 6.7"/><path fill="none" stroke="#231F20" stroke-miterlimit="10" stroke-width=".05" d="M679.3 98c27 12.1 13.1 18.7 34.7 7"/><path fill="none" stroke="#231F20" stroke-miterlimit="10" stroke-width=".05" d="M678.5 97.3c6.6 2.4 12.4 5.8 18.3 9.6 1.5 1 3.2 3.7 4.7 3.1 4.4-2 8.6-3.8 13.1-5.6"/><path fill="none" stroke="#231F20" stroke-miterlimit="10" stroke-width=".05" d="M677.7 96.6c8.9 1.8 16.6 8 23.9 11.8 4.6-1.7 9-3.2 13.6-4.7"/><path fill="none" stroke="#231F20" stroke-miterlimit="10" stroke-width=".05" d="M677 95.9c9.8.8 17.6 8.4 26.5 10.3 4.2-1.2 8.3-2.3 12.7-3.3"/><path fill="none" stroke="#231F20" stroke-miterlimit="10" stroke-width=".05" d="M676.3 95.2c10.2.2 18.5 7.2 27.8 9.3 4.4-1 8.7-1.9 13.2-2.6"/><path fill="none" stroke="#231F20" stroke-miterlimit="10" stroke-width=".05" d="M675.5 94.5c10.5-.5 19.3 6 28.8 8.2 4.6-.8 9-1.4 13.7-1.9"/><path fill="none" stroke="#231F20" stroke-miterlimit="10" stroke-width=".05" d="M674.9 93.9c19.8-.1 20.5 10.2 42.5 6.5"/><path fill="none" stroke="#231F20" stroke-miterlimit="10" stroke-width=".05" d="M674.2 93.2c10.5-1.4 19.4 4.1 28.9 6.8 4.6-.3 8.9-.2 13.6-.1"/><path fill="none" stroke="#231F20" stroke-miterlimit="10" stroke-width=".05" d="M673.6 92.6c10.4-1.9 19.5 3.1 28.9 6.1 4.6 0 8.9.4 13.5.8"/><path fill="none" stroke="#231F20" stroke-miterlimit="10" stroke-width=".05" d="M673 92c10.4-2.3 19.5 2.1 28.9 5.3 4.6.2 8.8.9 13.4 1.7"/><path fill="none" stroke="#231F20" stroke-miterlimit="10" stroke-width=".05" d="M672.4 91.5c14.9-3.5 27.7 5.6 42.2 7.2"/><path fill="none" stroke="#231F20" stroke-miterlimit="10" stroke-width=".05" d="M671.8 90.9c14.8-4.3 27.9 4.3 42.1 7.3"/><path fill="none" stroke="#231F20" stroke-miterlimit="10" stroke-width=".05" d="M671.3 90.4c14.7-5.1 28.2 3.1 41.9 7.4"/><path fill="none" stroke="#231F20" stroke-miterlimit="10" stroke-width=".05" d="M670.8 89.8c14.6-5.9 28.4 1.9 41.8 7.4"/><path fill="none" stroke="#231F20" stroke-miterlimit="10" stroke-width=".05" d="M670.2 89.3c14.6-6.8 28.7.7 41.6 7.5"/><path fill="none" stroke="#231F20" stroke-miterlimit="10" stroke-width=".05" d="M669.8 88.8c14.5-7.6 28.9-.4 41.4 7.5"/><path fill="none" stroke="#231F20" stroke-miterlimit="10" stroke-width=".05" d="M669.3 88.3c14.4-8.4 29.2-1.6 41.2 7.5m-27.7 5.4c19.7 15 14.9 21.9 30.2 4.8"/><path fill="none" stroke="#231F20" stroke-miterlimit="10" stroke-width=".05" d="M668.9 87.9c4.6 4.9 8.7 8.6 14 13.3m25.3-7.1c8.2 8.2 9.7 3.6 3.7 13.2"/><path fill="none" stroke="#231F20" stroke-miterlimit="10" stroke-width=".05" d="M706.5 92.9c8.9 10.7 8.6 3.9 4 15.7"/><path fill="none" stroke="#231F20" stroke-miterlimit="10" stroke-width=".05" d="M704.9 91.7c9.3 12.9 7.8 4.6 4.4 18.2"/><path fill="none" stroke="#231F20" stroke-miterlimit="10" stroke-width=".05" d="M703.2 90.5c1.8 2.9 3.5 5.4 5.4 8 .8 1.2 3.4 1.7 2.2 3.7-1.7 3.1-3.4 6.1-2.8 9.1"/><path fill="none" stroke="#231F20" stroke-miterlimit="10" stroke-width=".05" d="M701.5 89.3c1.8 3.3 3.4 6.1 5.2 9.1.8 1.3 3.2 2.1 2.2 4.1-1.7 3.5-3 6.8-2.3 10.2"/><path fill="none" stroke="#231F20" stroke-miterlimit="10" stroke-width=".05" d="M699.7 88.2c9.2 18.3 6.2 8 5.4 25.9"/><path fill="none" stroke="#231F20" stroke-miterlimit="10" stroke-width=".05" d="M697.9 87.1c8.9 19.5 5.8 9.5 5.8 28.4"/><path fill="none" stroke="#231F20" stroke-miterlimit="10" stroke-width=".05" d="M696 86.1c2.2 5.8 4.4 11.1 6.9 16.7-.1 4.3-2.4 9.6-.8 14.2"/><path fill="none" stroke="#231F20" stroke-miterlimit="10" stroke-width=".05" d="M694 85.2c2.1 5.8 4.2 11.1 6.6 16.6-.1 4.4-2 9.6-.3 14.2"/><path fill="none" stroke="#231F20" stroke-miterlimit="10" stroke-width=".05" d="M692.1 84.5c2 5.6 4 10.8 6.4 16.2 0 4.3-1.6 9.4.2 13.9"/><path fill="none" stroke="#231F20" stroke-miterlimit="10" stroke-width=".05" d="M690 83.9c1.9 5.5 3.9 10.5 6.2 15.7.1 4.3-1.1 9.2.7 13.6"/><path fill="none" stroke="#231F20" stroke-miterlimit="10" stroke-width=".05" d="M687.9 83.5c1.7 4.7 3.4 9 5.3 13.4 1.6 4.7-.2 10.2 2.1 15"/><path fill="none" stroke="#231F20" stroke-miterlimit="10" stroke-width=".05" d="M685.7 83.2c1.6 4.5 3.3 8.6 5.3 12.8 1.7 4.6.3 9.8 2.7 14.4"/><path fill="none" stroke="#231F20" stroke-miterlimit="10" stroke-width=".05" d="M683.5 83.2c1.6 4.3 3.4 8.1 5.3 12.2 1.7 4.4.9 9.4 3.4 13.8m-10.8-25.8c4.3 8 6.3 16 9.3 24.5m-11.1-24.2c1.7 4.6 4.4 8.3 6.2 12.7.5 3.6 1.6 6.8 3.5 10.3m-11.6-22.5c4 7.2 6.5 13.9 10.2 21.3m-12.2-20.6c4 6.6 6.7 12.8 10.8 19.5m-12.9-18.7c4 6.1 7.2 11.6 11.7 17.6m-14-16.6c4.2 5.5 7.9 10.3 12.7 15.5m25.8-6.8c6.8 5.4 10.9 3.7 3.2 10.6"/><path fill="none" stroke="#231F20" stroke-miterlimit="10" stroke-width=".06" d="M29.6 116.6C63.9 101 99.4 88.2 135.7 78c24 3.8 49.1 14.8 73.1 21M14.5 123.6c49.5-1.5 98.8-2.3 148.3-.8"/><path fill="none" stroke="#231F20" stroke-miterlimit="10" stroke-width=".06" d="M15.3 123.3c50-2.9 99.8-4.7 149.9-1.7"/><path fill="none" stroke="#231F20" stroke-miterlimit="10" stroke-width=".06" d="M16 122.9c50.5-4.4 100.8-7 151.4-2.5"/><path fill="none" stroke="#231F20" stroke-miterlimit="10" stroke-width=".06" d="M16.8 122.6c30.7-3.1 61.3-5.7 92-7.4 20.3 1 40.6 2.8 61 4.1"/><path fill="none" stroke="#231F20" stroke-miterlimit="10" stroke-width=".06" d="M17.5 122.2c30.9-3.8 61.8-7.1 92.9-9.3 20.5 1.3 41.1 3.5 61.6 5.1"/><path fill="none" stroke="#231F20" stroke-miterlimit="10" stroke-width=".06" d="M18.2 121.9c31.7-4.6 63.5-8.9 95.5-11.1 20.2 2 40.4 4.1 60.6 6.1"/><path fill="none" stroke="#231F20" stroke-miterlimit="10" stroke-width=".06" d="M19 121.5c32-5.3 64.1-10.3 96.4-13l61.2 7.2"/><path fill="none" stroke="#231F20" stroke-miterlimit="10" stroke-width=".06" d="M19.7 121.2c31.4-6.1 62.9-11.2 94.6-14.7 21.6 1.5 43 5.6 64.5 8"/><path fill="none" stroke="#231F20" stroke-miterlimit="10" stroke-width=".06" d="M20.5 120.8c31.6-6.8 63.4-12.5 95.5-16.5 21.8 1.7 43.4 6.3 65.2 9"/><path fill="none" stroke="#231F20" stroke-miterlimit="10" stroke-width=".06" d="M21.2 120.5c31.9-7.6 64-13.9 96.4-18.4 22 1.9 43.9 7 65.8 10"/><path fill="none" stroke="#231F20" stroke-miterlimit="10" stroke-width=".06" d="M22 120.1c32.7-8.4 65.6-15.5 99-20.5 21.6 3.4 43.2 7.6 64.9 11.3"/><path fill="none" stroke="#231F20" stroke-miterlimit="10" stroke-width=".06" d="M22.8 119.7c32.9-9.2 66.2-16.8 99.9-22.3 21.8 3.7 43.6 8.3 65.5 12.3"/><path fill="none" stroke="#231F20" stroke-miterlimit="10" stroke-width=".06" d="M23.5 119.4c33.1-9.9 66.7-18.2 100.8-24.2 22 4 44.1 9 66.1 13.4"/><path fill="none" stroke="#231F20" stroke-miterlimit="10" stroke-width=".06" d="M24.3 119c33.9-10.4 68.3-20.8 103.3-25.8 21.7 4.7 43.4 9.4 65.1 14.2"/><path fill="none" stroke="#231F20" stroke-miterlimit="10" stroke-width=".06" d="M25 118.7C59.2 107.6 93.9 96.5 129.3 91c21.9 5.1 43.8 10.1 65.7 15.2"/><path fill="none" stroke="#231F20" stroke-miterlimit="10" stroke-width=".06" d="M25.8 118.3c33.5-12.1 67.7-22.1 102.5-29.5 23.1 3.9 46 11.2 69 16.2"/><path fill="none" stroke="#231F20" stroke-miterlimit="10" stroke-width=".06" d="M26.6 118C60.3 105.2 94.8 94.6 130 86.6c23.3 4.2 46.4 11.8 69.7 17.2"/><path fill="none" stroke="#231F20" stroke-miterlimit="10" stroke-width=".06" d="M27.3 117.6c34-13.5 68.8-24.7 104.3-33.2 23.6 4.4 46.8 12.5 70.3 18.2"/><path fill="none" stroke="#231F20" stroke-miterlimit="10" stroke-width=".06" d="M28.1 117.3C62.7 103 98.6 90.6 134.8 81.9c23.1 6.5 46.2 13 69.4 19.5"/><path fill="none" stroke="#231F20" stroke-miterlimit="10" stroke-width=".06" d="M28.9 116.9c34.9-15 71-28 107.7-37.2 23.3 6.9 46.6 13.7 70 20.6M13.8 124h146.7"/><path fill="none" stroke="#231F20" stroke-miterlimit="10" stroke-width=".06" d="M29.6 116.6c-5.6 2.6-10.3 4.7-15.8 7.4m186.4-27.6c-15.7 9.3-31 18.3-46.6 27.6m38-30.2c-15.1 10.1-29.9 20-45 30.2m36.3-32.8c-14.6 11-28.8 21.8-43.3 32.8m34.7-35.5c-14 11.9-27.7 23.5-41.7 35.5m33.1-38.1c-13.5 12.8-26.6 25.3-40.1 38.1M157 83.2c-12.9 13.7-25.5 27-38.4 40.7m29.8-43.3c-12.4 14.5-24.5 28.8-36.8 43.4m28.2-46c-11.8 15.4-23.4 30.5-35.1 46m27.1-44.9c-11.5 15-22.7 29.8-34.1 44.8m26.1-42.4c-11.2 14.3-22.1 28.2-33.2 42.5m25.1-40.1c-10.8 13.4-21.3 26.6-32.1 40.1m23.9-37.5C97.1 99.1 87 111.3 76.7 124m22.4-34.7c-10 11.7-19.6 23-29.4 34.7m20.9-31.8c-9.5 10.7-18.6 21-27.9 31.8M82 95.2c-9 9.7-17.4 19-26.3 28.7m17.6-25.4c-8.4 8.6-16.3 16.8-24.5 25.5m15.6-22.1c-7.8 7.5-15 14.5-22.7 22.1m13.8-18.5c-7.2 6.3-13.7 12.1-20.7 18.5m11.6-14.8c-6.5 5.1-12.2 9.6-18.7 14.8m10.1-11.1c-5.9 3.8-11.2 7.2-17 11.1m188-24.9c-16.2 8.4-32 16.5-48.3 24.9"/><path fill="none" stroke="#231F20" stroke-miterlimit="10" stroke-width=".13" d="M177.8 115.1c22.8-11.7 45.4-23.4 68.1-35.1 1.4-.7 2.9-1.7 4.2-.6l17.1 13.2m-105.8 31c20-.4 39.6-2.5 59.6-1.1m-58.8.6c20.5-.9 40.7-5 61.1-2.3"/><path fill="none" stroke="#231F20" stroke-miterlimit="10" stroke-width=".13" d="M163.1 122.7c21-1.3 41.7-7.5 62.5-3.4"/><path fill="none" stroke="#231F20" stroke-miterlimit="10" stroke-width=".13" d="M163.9 122.3c21.4-1.7 42.7-10 64-4.5"/><path fill="none" stroke="#231F20" stroke-miterlimit="10" stroke-width=".13" d="M164.7 121.9c14-2.4 27.7-4.9 41.6-7.3 8.2-2.6 15.8-.5 23.9 1.6"/><path fill="none" stroke="#231F20" stroke-miterlimit="10" stroke-width=".13" d="M165.5 121.5c14.3-2.9 28.4-5.8 42.6-8.8 8.9-3.2 15.7-.7 24.4 1.9"/><path fill="none" stroke="#231F20" stroke-miterlimit="10" stroke-width=".13" d="M166.3 121c16.6-3.9 33-7.7 49.6-11.6 6.3-2.5 12.6 2.5 19 3.6"/><path fill="none" stroke="#231F20" stroke-miterlimit="10" stroke-width=".13" d="M167.2 120.6c17-4.4 33.8-8.8 50.7-13.2 6.5-2.9 12.9 2.8 19.4 4.2"/><path fill="none" stroke="#231F20" stroke-miterlimit="10" stroke-width=".13" d="M168 120.2c17.4-5 34.5-9.9 51.9-14.9 6.6-3.2 13.1 3.2 19.7 4.7"/><path fill="none" stroke="#231F20" stroke-miterlimit="10" stroke-width=".13" d="M168.8 119.8c16.7-5.2 33.2-10.3 49.8-15.5 8.3-4.6 15.5 1.2 23.3 4.2"/><path fill="none" stroke="#231F20" stroke-miterlimit="10" stroke-width=".13" d="M169.6 119.3c17.1-5.7 33.9-11.3 50.9-17 9-5.1 15.3 1.3 23.7 4.6"/><path fill="none" stroke="#231F20" stroke-miterlimit="10" stroke-width=".13" d="M170.4 118.9c16.4-5.9 32.7-11.6 49.1-17.5 12.6-6.4 15.6-1.3 27.1 4"/><path fill="none" stroke="#231F20" stroke-miterlimit="10" stroke-width=".13" d="M171.3 118.5c16.8-6.3 33.4-12.6 50.1-18.9 13.1-6.9 15.8-1.4 27.6 4.4"/><path fill="none" stroke="#231F20" stroke-miterlimit="10" stroke-width=".13" d="M172.1 118.1c17.1-6.8 34-13.5 51.1-20.3 13.9-7.5 15.7-1.5 28 4.8"/><path fill="none" stroke="#231F20" stroke-miterlimit="10" stroke-width=".13" d="M172.9 117.6c19.4-8.1 38.6-16.1 57.9-24.1 2.9-1.2 5.8-3.3 8.8-.7 4.6 2.7 9.2 5.5 13.9 8.3"/><path fill="none" stroke="#231F20" stroke-miterlimit="10" stroke-width=".13" d="M173.7 117.2c19.8-8.6 39.3-17.1 59-25.7 3-1.2 5.9-3.5 9-.8 4.7 2.9 9.3 5.9 14.1 8.8"/><path fill="none" stroke="#231F20" stroke-miterlimit="10" stroke-width=".13" d="M174.5 116.8c22-10 43.8-19.8 65.8-29.8 1.5-.7 2.8 1.3 4.2 2.2 4.5 3 9 5.9 13.6 8.9"/><path fill="none" stroke="#231F20" stroke-miterlimit="10" stroke-width=".13" d="M175.4 116.4c22.4-10.5 44.6-20.9 67-31.4 1.5-.7 2.8 1.4 4.3 2.4 4.6 3.1 9.1 6.3 13.8 9.5"/><path fill="none" stroke="#231F20" stroke-miterlimit="10" stroke-width=".13" d="M176.2 115.9c21.7-10.5 43.1-20.9 64.8-31.4 1.4-.7 3-2.6 4.3-1.6 5.8 4.1 11.6 8.3 17.4 12.5"/><path fill="none" stroke="#231F20" stroke-miterlimit="10" stroke-width=".13" d="M177 115.5c22-11 43.9-22 65.9-33 1.5-.7 3.1-2.7 4.4-1.7 5.9 4.4 11.7 8.7 17.6 13.2m-104.3 30h58.2"/><path fill="none" stroke="#231F20" stroke-miterlimit="10" stroke-width=".13" d="M177.8 115.1c-6.1 3.1-11.1 5.8-17.2 8.9m102.7-34.4C247.1 100.7 231.5 112 216 124m43.5-37.4c-15.8 12.2-31 24.5-46.2 37.4m42.3-40.4c-15.4 13.3-30.3 26.5-45.1 40.4m41.2-43.5c-15 14.3-29.6 28.5-44 43.4m40-44.8C233.2 94 219 108.6 205 124m38.3-42.7c-14 14.1-27.6 28-41.1 42.6m36.7-40.3c-13.4 13.4-26.5 26.6-39.5 40.4m35.2-38.2c-12.9 12.6-25.4 25.1-37.9 38.1m33.5-35.8c-12.4 11.9-24.4 23.6-36.3 35.9m31.9-33.7c-11.8 11.2-23.3 22.1-34.7 33.6m30.4-31.3c-11.3 10.4-22.2 20.6-33.1 31.4m28.7-29.2c-10.8 9.7-21.1 19.1-31.6 29.1m27.2-26.8c-10.2 8.9-20 17.7-30 26.9m25.7-24.7c-9.7 8.2-18.9 16.2-28.4 24.6m24-22.3c-9.2 7.5-17.8 14.7-26.8 22.4m22.4-20.2c-8.6 6.8-16.7 13.2-25.2 20.1m20.9-17.8c-8.1 6-15.6 11.7-23.6 17.9m19.2-15.7c-7.6 5.3-14.5 10.2-22 15.6m17.7-13.3c-7.1 4.6-13.4 8.7-20.4 13.4m16-11.2c-6.5 3.8-12.3 7.3-18.8 11.1m103.8-31.3c-16.5 10-32.5 20.4-48.4 31.4"/><path fill="none" stroke="#231F20" stroke-miterlimit="10" stroke-width=".25" d="M455.3 8.2c53 54.7 121 90.8 192.4 115.7M281.5 84.1c-13.8 13.3-26 27.6-41.4 39.3m50.6-44.5c-10.8 14.6-17.3 31.4-30.3 44.4M299.7 74c-8.3 15.9-8.8 34.2-19 49.4m27.8-54.2c-6.1 17.6-1 36.5-7.7 54.2m16.5-58.8c-3.7 19.7 6.1 38.8 3.8 58.8m4.6-53.5c-.6 19 12.9 35 15.7 53.6m-7.3-47.6c3 18.5 18.8 31.7 27.5 47.6m-18.5-43.7c6.6 18.8 24.4 31.2 38.9 43.9m-29.4-45.1c10.1 20.5 30.5 33.9 49.7 45.1m-41.1-50.5c13.7 23.3 37.7 38.8 61.4 50.5m-52.9-56.5c17.3 26.3 45.2 43.6 73.3 56.5m-64.8-62.4c20.9 29.2 52.7 48.4 85.2 62.4m-76.7-68.3c24.5 32.1 60.3 53.2 97.1 68.3"/><path fill="none" stroke="#231F20" stroke-miterlimit="10" stroke-width=".25" d="M395.3 49.4c28.1 34.9 67.8 57.9 109 74.3"/><path fill="none" stroke="#231F20" stroke-miterlimit="10" stroke-width=".25" d="M403.8 43.5c31.7 37.8 75.4 62.7 120.9 80.2"/><path fill="none" stroke="#231F20" stroke-miterlimit="10" stroke-width=".25" d="M412.4 37.6c35.2 40.6 83 67.4 132.8 86.1"/><path fill="none" stroke="#231F20" stroke-miterlimit="10" stroke-width=".25" d="M420.9 31.7c38.8 43.4 90.6 72.1 144.7 92"/><path fill="none" stroke="#231F20" stroke-miterlimit="10" stroke-width=".25" d="M429.5 25.8c42.3 46.3 98.2 76.8 156.6 98"/><path fill="none" stroke="#231F20" stroke-miterlimit="10" stroke-width=".25" d="M438.1 20c45.9 49.1 105.8 81.5 168.5 103.9"/><path fill="none" stroke="#231F20" stroke-miterlimit="10" stroke-width=".25" d="M446.7 14.1c49.5 51.9 113.4 86.1 180.4 109.8M272.3 89.6c-17.2 11.9-34.4 23.1-52.4 33.9"/><path fill="none" stroke="#231F20" stroke-miterlimit="10" stroke-width=".25" d="M455.3 8.2c-22.8 15.5-45.5 31.1-68.1 46.8-13.5 7.7-24.8 21.3-40.1 24.9-8.5.9-14.8-5.5-21.3-9.9-2.7-1.2-5.8-5.8-8.5-5.4-15.3 7.9-30.3 16.2-45.1 25m366.7 30.9c-80.1.4-160.2 1.4-240.3 2-58.7-1.3-117.3-1.6-176-.6"/><path fill="none" stroke="#231F20" stroke-miterlimit="10" stroke-width=".25" d="M630.1 117.1c-77.5 1.1-155 3-232.5 4.1-57.5-2.2-114.9-2.7-172.4-.9"/><path fill="none" stroke="#231F20" stroke-miterlimit="10" stroke-width=".25" d="M621.4 113.7c-75.6 1.8-151.1 4.6-226.6 6.2-21.8 0-43.5-2.1-65.3-3.5-33.9.3-67.8 1.4-101.7 2.2"/><path fill="none" stroke="#231F20" stroke-miterlimit="10" stroke-width=".25" d="M612.5 110.3c-73.6 2.4-147.1 6.2-220.7 8.4-21.8.1-43.5-3.1-65.2-4.6-32.1.8-64.2 1.8-96.3 3"/><path fill="none" stroke="#231F20" stroke-miterlimit="10" stroke-width=".25" d="M603.6 106.7c-71.6 3.1-143.1 8-214.7 10.6-20.2 0-40.2-3.3-60.2-5.5-31.9.3-63.8 2.3-95.7 3.6"/><path fill="none" stroke="#231F20" stroke-miterlimit="10" stroke-width=".25" d="M594.5 102.9c-69 3.9-137.8 9.5-206.7 12.9-20.4.1-40.6-4-60.8-6.6-30.4.9-60.9 2.8-91.4 4.5"/><path fill="none" stroke="#231F20" stroke-miterlimit="10" stroke-width=".25" d="M585.3 98.9c-66.9 4.6-133.7 11.4-200.6 15.4-20.5.4-40.4-5.5-60.6-7.6-28.6 1.5-57.2 3.3-85.9 5.4"/><path fill="none" stroke="#231F20" stroke-miterlimit="10" stroke-width=".25" d="M575.8 94.4C511 99.9 446.4 108 381.5 112.6c-18.8.1-37.1-5.1-55.5-8.4-28.4 1.2-56.8 4-85.2 6.3"/><path fill="none" stroke="#231F20" stroke-miterlimit="10" stroke-width=".25" d="M566.1 89.6c-62.1 6.4-123.9 15.3-186 21.1-19.1.6-37.5-6-56-9.3-26.9 2.1-53.8 4.6-80.7 7.6"/><path fill="none" stroke="#231F20" stroke-miterlimit="10" stroke-width=".25" d="M556.1 84.3c-59.9 7.4-119.5 17.8-179.5 24.3-17.5.4-34.1-5.7-50.9-9.6-26.6.5-53.3 5.4-79.8 8.3"/><path fill="none" stroke="#231F20" stroke-miterlimit="10" stroke-width=".25" d="M545.7 78.4c-57 8.6-113.7 19.8-170.8 27.8-17.7.9-34.4-6.1-51.3-10.5-25.1 1.9-50.2 6.3-75.2 9.9"/><path fill="none" stroke="#231F20" stroke-miterlimit="10" stroke-width=".25" d="M535 71.8c-54.8 9.8-109.1 22.8-163.9 31.8-17.8 1.5-33.8-8.1-50.8-11-23.2 3.3-46.3 7.1-69.4 11.4"/><path fill="none" stroke="#231F20" stroke-miterlimit="10" stroke-width=".25" d="M523.9 64.6c-51.8 11.3-103 25.2-154.9 36.1-16.3 1.7-31.2-6.1-46.3-10.8-23.2 1.2-46.4 8.4-69.4 12.6"/><path fill="none" stroke="#231F20" stroke-miterlimit="10" stroke-width=".25" d="M512.6 56.8c-31.8 8.7-63.6 17.6-95.3 26.6-19 4.4-37.4 13-56.9 14.5-12.9.2-24.5-6.4-36.5-10.5-6-3.5-12.9 1-19.3 1.6-16.4 3.6-32.7 7.5-48.9 11.8"/><path fill="none" stroke="#231F20" stroke-miterlimit="10" stroke-width=".25" d="M502.1 49.1c-30.3 9.7-60.5 19.6-90.7 29.7-17.7 5-34.5 13.8-52.8 16.1-13.2.7-24.8-6.7-36.8-11.2-6.4-2.5-13.1 2.1-19.6 3-14.8 3.9-29.5 8-44.1 12.5"/><path fill="none" stroke="#231F20" stroke-miterlimit="10" stroke-width=".25" d="M492.4 41.5c-29.8 11.1-59.5 22.5-89.2 34-16 5.2-31.1 14.6-47.9 16.6-13.3.5-24.6-7.9-36.5-12.6-19.5 4.2-39 11.8-58.3 18.1"/><path fill="none" stroke="#231F20" stroke-miterlimit="10" stroke-width=".25" d="M483.4 34.1c-28 12-55.8 24.2-83.6 36.5-15.9 5.8-30.6 16.7-47.5 18.7-11.7.3-21.4-7.4-31.7-11.9-6.3-2.8-13 2.9-19.3 4.2-12.9 4.5-25.6 9.3-38.3 14.4"/><path fill="none" stroke="#231F20" stroke-miterlimit="10" stroke-width=".25" d="M475.2 27c-25.7 12.5-51.2 25.2-76.7 38.1-15.5 6.7-29.7 17.6-46.1 21.4-8.1 1.1-15.4-2.8-22.2-6.7-4.4-1.7-8.8-6.1-13.2-6.7-17.4 6.6-34.6 13.7-51.7 21.3"/><path fill="none" stroke="#231F20" stroke-miterlimit="10" stroke-width=".25" d="M467.8 20.3c-25.4 14-50.7 28.1-76 42.5-14 6.7-26.5 18.1-41.8 21.4-8.3 1.1-15.3-3.9-22.1-8-4.3-1.8-8.4-7.4-13.3-5-15.8 6.7-31.4 14-46.9 21.6"/><path fill="none" stroke="#231F20" stroke-miterlimit="10" stroke-width=".25" d="M461.1 14c-23.4 14.4-46.6 28.8-69.8 43.4-13.7 7.6-26 18.8-40.7 24.1-8.2 1.9-15.4-2.6-21.8-7.2-4.2-1.9-8.2-7.4-12.9-6.6-15.5 7.3-30.8 15.1-45.9 23.4m377.7 32.8c-142.6-.2-285.1-.6-427.7-.5"/><path fill="none" stroke="#231F20" stroke-miterlimit="10" stroke-width=".13" d="M733.4 87.9c10.9-7.2 37.8-33.4 49.1-32.1 9.4 3.5 11.6 13.9 25.7 15.3 8.9 1.8 15.2-3.6 21.7-9.2 10.6-6.7 21.8-27.6 35.3-22.4 20.7 14.3 39.6 31.6 59.1 47.7m-227.7 34.9c40-1.5 80-1.3 120-.8 48.9-2.3 97.8-.7 146.8.9"/><path fill="none" stroke="#231F20" stroke-miterlimit="10" stroke-width=".13" d="M698.7 120.2c21.6-.6 43-2.6 64.6-3 17.1.4 34.1 2.1 51.1 1.5 19.6-.2 39.1-3.1 58.8-3 29.4 1 58.8 3.2 88.2 4.8"/><path fill="none" stroke="#231F20" stroke-miterlimit="10" stroke-width=".13" d="M700.7 118.4c21.7-.9 43.2-4 64.8-4.5 17 .9 34 3.1 51.1 2.1 18.2-.6 36.3-4.3 54.6-4.4 29.5 1.3 58.9 4.8 88.4 7.1"/><path fill="none" stroke="#231F20" stroke-miterlimit="10" stroke-width=".13" d="M702.6 116.6c21.4-1.3 42.5-5.4 63.9-6 16.8 1.2 33.4 4.2 50.2 2.9 18.1-.8 35.7-5.8 53.9-5.9 29.1 1.7 58 6.3 87 9.5"/><path fill="none" stroke="#231F20" stroke-miterlimit="10" stroke-width=".13" d="M704.5 114.8c19.8-1.7 39.3-5.8 59-7.5 17.1.1 33.8 5.3 51.1 3.6 18.2-.6 35.8-6.9 54-7.5 29.2 1.7 58.1 7.9 87.2 11.8"/><path fill="none" stroke="#231F20" stroke-miterlimit="10" stroke-width=".13" d="M706.3 113c19.9-2.1 39.4-7.3 59.3-9 17.1.8 33.7 6.5 51 4.3 16.9-1.1 33-7.7 49.8-8.8 29.4 1.4 58.3 9.5 87.4 14.1"/><path fill="none" stroke="#231F20" stroke-miterlimit="10" stroke-width=".13" d="M708 111.3c19.6-2.5 38.7-8.5 58.4-10.6 16.8.9 33.1 7.6 50.2 5 16.7-1.4 32.4-8.9 49.2-10.3 29.1 1.6 57.4 11.1 86.1 16.4"/><path fill="none" stroke="#231F20" stroke-miterlimit="10" stroke-width=".13" d="M709.7 109.6c19.8-2.9 38.8-10.2 58.7-12.1 15.4 1.4 30.2 8.2 46 5.9 16.9-1.1 32.4-9.6 49.2-11.9 11.3-1.3 22.2 3 33.2 5.3 17.8 4.3 35.5 8.7 53.2 13.2"/><path fill="none" stroke="#231F20" stroke-miterlimit="10" stroke-width=".13" d="M711.3 108c19.9-3.3 39-12.1 59.1-13.7 15.3 2.4 29.9 9.2 45.8 6.4 15.6-1.8 29.8-10 45.2-13 11.4-2.1 22.4 2.8 33.3 5.4 17.8 4.9 35.6 9.9 53.3 15.1"/><path fill="none" stroke="#231F20" stroke-miterlimit="10" stroke-width=".13" d="M712.8 106.4c19.7-3.8 38.3-13.4 58.3-15.2 15 2.7 29.3 10.2 45 7.1 15.5-2.1 29.3-11.1 44.6-14.5 11.3-2.3 22.1 3.1 32.9 6 17.5 5.4 35 11 52.5 16.8"/><path fill="none" stroke="#231F20" stroke-miterlimit="10" stroke-width=".13" d="M713.2 105.9c12.4-3.5 24.7-7.6 36.9-12 11-4.6 23.1-7.6 34.1-1.4 9.8 4.2 20.9 5.2 31.3 3.8 15.5-2.5 29-12.3 44.2-16.2 11.3-2.6 22 3.3 32.5 6.4 17.4 5.8 34.6 11.9 51.9 18.2"/><path fill="none" stroke="#231F20" stroke-miterlimit="10" stroke-width=".13" d="M713.6 105.5c10.6-3.5 21.2-7.3 31.6-11.4 11.2-4.2 23.8-11.3 35.5-4.9 9.7 4.9 21.1 7 31.9 5.6 15.9-2.2 29.3-12.7 44.3-17.7 13.1-4.1 25.5 4 37.7 7.8 15.9 5.8 31.7 11.9 47.5 18.1"/><path fill="none" stroke="#231F20" stroke-miterlimit="10" stroke-width=".13" d="M714.2 104.9c12.4-4.6 24.6-9.6 36.7-14.9 9.2-4.3 20.1-8.8 29.7-3.1 9.4 5.3 20.9 7.5 31.6 6 17.5-2.6 31.3-16.7 48.4-20.4 11.6-1.4 22 5.8 32.7 9.3 15.7 6.3 31.3 12.7 46.9 19.4"/><path fill="none" stroke="#231F20" stroke-miterlimit="10" stroke-width=".13" d="M715.1 103.9c12.2-5 24.2-10.5 36.2-16.1 9-4.5 20-9.6 29.4-3.4 9.2 5.6 20.6 8.1 31.2 6.4 17.5-3 30.8-17.9 47.8-22.1 11.6-1.6 21.7 6.3 32.3 10 15.5 6.7 30.9 13.7 46.2 20.8"/><path fill="none" stroke="#231F20" stroke-miterlimit="10" stroke-width=".13" d="M716.4 102.7c12.3-5.6 24.3-11.6 36.4-17.7 9-5.1 20.1-9.7 29.2-2.6 9 5.8 20.7 8.1 31.2 5.8 16.1-4.1 28.5-17.7 44.1-23.1 11.8-2.8 22 5.9 32.5 9.9 15.6 7.3 31 14.9 46.4 22.7"/><path fill="none" stroke="#231F20" stroke-miterlimit="10" stroke-width=".13" d="M718 101.1c12-6.1 23.9-12.4 35.7-18.9 8.7-5.3 20-10.4 28.8-2.7 7.7 5.5 18 8.1 27.3 6.9 11.3-1.3 20.5-10 30.1-15.6 18.2-13.7 24.9-12.5 44.1-1.4 16.9 8.6 33.6 17.4 50.2 26.6"/><path fill="none" stroke="#231F20" stroke-miterlimit="10" stroke-width=".13" d="M720.1 99.2c10.1-5.6 20.1-11.4 30.1-17.2 9.2-4.9 20.2-14.6 30.5-7.5 8.4 6.9 20 11.1 30.9 9 11.4-2.4 20.7-11.8 30.4-17.8 15.5-13.3 23.8-10.7 40.1-.4 16.9 9.3 33.6 19 50.1 28.9"/><path fill="none" stroke="#231F20" stroke-miterlimit="10" stroke-width=".13" d="M722.7 96.9c11.7-7.1 23.3-14.3 35-21.5 7.2-4.7 16.5-10.5 24.4-4.3 8 7.2 19.5 11.9 30.2 9.7 11.3-2.7 20.3-12.4 29.8-18.8 15.4-14.1 23.1-11.3 39.2-.3 16.5 10 32.8 20.2 49 30.8"/><path fill="none" stroke="#231F20" stroke-miterlimit="10" stroke-width=".13" d="M725.7 94.3c9.7-6.5 19.4-12.9 29.2-19.4 7-4 12.9-10.2 21.2-10.5 10 1.3 15.1 12.8 26.8 13.3 11 2.5 19.7-3.8 27.9-10.5 11.2-7 21.1-23.9 35.7-18.2 21.1 13 41.3 27.4 61.6 41.7"/><path fill="none" stroke="#231F20" stroke-miterlimit="10" stroke-width=".13" d="M729.3 91.3c9.3-6.8 18.7-13.5 28.3-20.2 6.8-4.1 12.6-10.6 20.8-10.9 9.7 1.3 14 13.3 26.1 14.2 10.9 2.7 19.1-4.1 27.1-10.9 10.9-7 20.5-25.1 34.9-18.9C887 58.5 906.6 73.8 926.3 89m-231.8 35h270.8"/><path fill="none" stroke="#231F20" stroke-miterlimit="10" stroke-width=".13" d="M733.4 87.9c-15 11.4-25 24-38.9 36.1m220.8-44.3c12 15.2 25.2 28.8 37 44.2m-45.8-51.6c9.8 18.1 23 33.6 33 51.7m-41.8-59c7.5 20.8 20.8 38.4 28.9 59m-37.7-66.2c5.3 23.2 18.6 43.2 24.8 66.2m-33.6-73.2c3.1 25.5 16.2 47.9 20.7 73.2m-29.4-80.2c.9 27.6 13.8 52.6 16.5 80.1m-25.8-85.1c-1.2 16.1 3 31.4 7.3 46.7 2.3 12.8 4.1 25.5 5.6 38.5m-22.7-82.6c-1.8 14.8.7 29.3 5.3 43.3 2 13 3.5 26 4.5 39.3m-18.5-74.4c-3.3 14.1-.2 27.7 3.3 41.2 1.3 11 2 22.1 2.3 33.2m-15.8-65.1c-4.2 12.6-1.4 24.4 1.9 36.5.9 9.5 1.2 19 1.1 28.6m-13.7-56.3c-3.3 9.3-4.5 19.4.2 28.2 1.5 9.1 1 18.8.6 28.2M815.7 71c-4.8 9.4-6.1 18.7-2.7 28.4-.2 8.3-1 16.3-2.5 24.6m-3.1-52.9c-5.4 9.2-7.9 18.3-5.2 28.3-.9 8.3-2.4 16.4-4.6 24.6m-.9-57c-4.9 9-9.6 18.7-6.4 28.5-.5 9.4-3.1 19.2-5.6 28.5m3.4-64.8c-5.6 10.1-11.1 21-8.6 32.4-1.2 10.8-4.5 21.8-7.7 32.4m7.1-68.1c-7 11.1-12.2 22.7-10.6 35.8-2.4 11-5.5 21.7-9.3 32.4m10.5-63.5c-6.4 9.8-13.6 20-12.2 31.7-2.4 10.7-6.8 21.4-11.1 31.7m12.1-55.2c-7 9.1-13.9 17.7-13.5 29.1-3.2 9-7.1 17.6-11.6 26.1m15.4-48c-6.1 7.6-14.5 14.4-14.8 24-3.3 8.2-8.5 16.3-13.5 24m20-41.6c-6.6 6.5-12.4 11.6-16.7 18.8-3.4 8.6-10.4 15.4-16.3 22.8m216.9-36.7c14 12.1 27.5 24.1 41 36.7m-19.6-47.4c24.1-22 51-34.7 77.2-7.9 22.4 15.1 46.4 28 70 41.1m-129.9 11.8c52.3-2.6 104.5.8 156.8 1.8"/><path fill="none" stroke="#231F20" stroke-miterlimit="10" stroke-width=".13" d="M960.4 119.3c52.8-5.1 105.4 1.6 158.2 3.6"/><path fill="none" stroke="#231F20" stroke-miterlimit="10" stroke-width=".13" d="M957.8 116.9c53.3-7.6 106.4 2.3 159.6 5.4"/><path fill="none" stroke="#231F20" stroke-miterlimit="10" stroke-width=".13" d="M955.2 114.5c53.8-10.2 107.3 3.1 161.1 7.2"/><path fill="none" stroke="#231F20" stroke-miterlimit="10" stroke-width=".13" d="M952.6 112.2c20.3-3.2 40.8-6.4 61.4-4.8 33.7 4.3 67.2 10.2 101.1 13.8"/><path fill="none" stroke="#231F20" stroke-miterlimit="10" stroke-width=".13" d="M950 109.8c19.9-3.8 40.1-7.5 60.3-5.9 34.6 5 68.8 12.4 103.5 16.6"/><path fill="none" stroke="#231F20" stroke-miterlimit="10" stroke-width=".13" d="M947.3 107.5c20-4.4 40.4-8.7 60.9-6.9 34.9 5.8 69.3 14.4 104.4 19.4"/><path fill="none" stroke="#231F20" stroke-miterlimit="10" stroke-width=".13" d="M944.7 105.1c20-5.1 40.7-10 61.4-7.9 35.1 6.7 69.8 16.4 105.2 22.1"/><path fill="none" stroke="#231F20" stroke-miterlimit="10" stroke-width=".13" d="M942.1 102.7c21-5.9 43-11.8 64.9-8.6 34.3 8.2 68.4 17.9 103.1 24.4"/><path fill="none" stroke="#231F20" stroke-miterlimit="10" stroke-width=".13" d="M939.4 100.4c21-6.6 43.3-13.1 65.4-9.5 34.6 9.1 68.8 19.8 103.9 27.1"/><path fill="none" stroke="#231F20" stroke-miterlimit="10" stroke-width=".13" d="M936.7 98c21.9-7.6 45.5-15 68.7-10 33.7 10.6 67.6 21.1 102 29.2"/><path fill="none" stroke="#231F20" stroke-miterlimit="10" stroke-width=".13" d="M934 95.7c21.9-8.3 45.8-16.4 69.2-10.9 33.9 11.6 68 22.9 102.8 31.9"/><path fill="none" stroke="#231F20" stroke-miterlimit="10" stroke-width=".13" d="M931.3 93.3c21.8-8.9 46.1-17.8 69.8-11.8 34.1 12.6 68.4 24.8 103.5 34.5"/><path fill="none" stroke="#231F20" stroke-miterlimit="10" stroke-width=".13" d="M928.6 91c22.5-10 48.3-19.9 72.9-12 33.2 13.9 67.3 25.8 101.8 36.3"/><path fill="none" stroke="#231F20" stroke-miterlimit="10" stroke-width=".13" d="M928.6 88.7c22.1-10.7 47.9-21.4 72.4-13 32.8 14.8 66.7 27.5 101 38.8"/><path fill="none" stroke="#231F20" stroke-miterlimit="10" stroke-width=".13" d="M931.9 86.6c22.6-12.4 51-24.6 75.9-11.7 29.6 15.6 61.3 27.1 92.6 38.8"/><path fill="none" stroke="#231F20" stroke-miterlimit="10" stroke-width=".13" d="M935 84.6c24.1-15.5 56.1-27.3 81.6-8.2 26.4 14.3 54.6 25.3 82.3 36.7"/><path fill="none" stroke="#231F20" stroke-miterlimit="10" stroke-width=".13" d="M938 82.5c24.5-17.4 55.5-29.2 81.4-7.6 25.1 14.1 51.8 25.6 78.1 37.3"/><path fill="none" stroke="#231F20" stroke-miterlimit="10" stroke-width=".13" d="M940.7 80.5c26.1-19.9 54.1-30.9 81.5-6.7 23.9 13.8 48.9 25.8 73.8 37.6"/><path fill="none" stroke="#231F20" stroke-miterlimit="10" stroke-width=".13" d="M943.2 78.5c25.1-20.9 52.5-32.8 79.3-7.3 23.1 14.5 47.6 26.9 71.9 39.4M965.5 124h155.4"/><path fill="none" stroke="#231F20" stroke-miterlimit="10" stroke-width=".13" d="M945.6 76.6c-2 2.9-20.3 12.8-17.5 13.9 12.7 11 25 22 37.4 33.5m121.1-17.5c8.6 6.7 17.6 11.7 26.8 17.5m-33.4-21.1c7.5 8.7 17 14.1 26 21.1m-33-25.1c6.1 10.8 16.7 16.7 25.7 25.1m-33.1-29.4c4.4 13 16.7 19.6 25.7 29.3M1057.7 90c2.1 4.1 1.5 8.4 4.4 12 7.5 7.3 14.6 14.4 21.7 22m-33.4-38.4c1.6 4.2.7 8.3 2.1 12.2 8.3 8.6 16.1 17.2 24 26.2"/><path fill="none" stroke="#231F20" stroke-miterlimit="10" stroke-width=".13" d="M1043.3 81.6c.6 4.1.8 8.2.4 12.3 7.4 10.3 17.5 19.7 25.4 30.1"/><path fill="none" stroke="#231F20" stroke-miterlimit="10" stroke-width=".13" d="M1036.2 77.6c.2 4.5 0 9-.8 13.3-.3 1.3 1.6 2.7 2.7 4.1 8.1 9.6 15.9 19.1 23.6 29"/><path fill="none" stroke="#231F20" stroke-miterlimit="10" stroke-width=".13" d="M1029.3 73.3c.9 6-3.8 12.2-.6 17.4 8.8 11 17.2 21.9 25.6 33.3"/><path fill="none" stroke="#231F20" stroke-miterlimit="10" stroke-width=".13" d="M1022.4 68.4c-.5 4.6-1.3 9.2-2.7 13.6-.4 1.4-1.3 2.7-.3 4.1 9.4 12.5 18.5 25 27.4 37.9"/><path fill="none" stroke="#231F20" stroke-miterlimit="10" stroke-width=".13" d="M1015.5 62.9c-1 6.2-2.6 12.3-5 18 9.1 14 20 28.4 29 43"/><path fill="none" stroke="#231F20" stroke-miterlimit="10" stroke-width=".13" d="M1009.2 58.3c-1.1 4.8-2.5 9.4-4.2 13.9-1.1 3-3.3 5.5-.5 8.4 9.5 14.3 18.6 28.6 27.6 43.3"/><path fill="none" stroke="#231F20" stroke-miterlimit="10" stroke-width=".13" d="M1002.8 55.1c-.7 6.4-8.5 17.6-7.2 22 10 15.5 19.6 31 29 46.9"/><path fill="none" stroke="#231F20" stroke-miterlimit="10" stroke-width=".13" d="M995 53.3c-.9 6.3-9.8 18.5-8.2 22.5 10.5 15.9 20.6 31.8 30.5 48.2"/><path fill="none" stroke="#231F20" stroke-miterlimit="10" stroke-width=".13" d="M986.5 53.7c-1 6-10.9 18.8-9 22.2 11.1 15.9 21.8 31.8 32.4 48"/><path fill="none" stroke="#231F20" stroke-miterlimit="10" stroke-width=".13" d="M979.1 55.5C978 61 966.7 74.3 968.9 77c11.5 15.5 22.6 31 33.6 46.9"/><path fill="none" stroke="#231F20" stroke-miterlimit="10" stroke-width=".13" d="M971.5 58.4c-3.3 6.3-7 12.2-11.4 17.6-1.1 1.4.1 2.8 1.2 4.2 11.6 14.4 22.8 28.9 33.9 43.7"/><path fill="none" stroke="#231F20" stroke-miterlimit="10" stroke-width=".13" d="M964.3 62.2c-3.7 5.9-7.8 11.4-12.6 16.5-1.2 1.3 0 2.6 1.1 3.9 11.9 13.7 23.4 27.3 34.9 41.4"/><path fill="none" stroke="#231F20" stroke-miterlimit="10" stroke-width=".13" d="M958 66.5c-4.6 5.9-9.5 11.3-15.2 16.1-1.4 1.2 2.2 2.7 3.4 4 11.6 12.3 22.8 24.6 34.1 37.3"/><path fill="none" stroke="#231F20" stroke-miterlimit="10" stroke-width=".13" d="M952 71.4c-5.2 5.4-10.7 10.2-16.8 14.6-1.6 1.1 2.2 2.4 3.4 3.7 11.6 11.3 23 22.7 34.3 34.4m120-14.3c9.5 5 18.4 9.4 27.9 14.1"/></svg>